<svg data-v-423bf9ae="" xmlns="http://www.w3.org/2000/svg" viewBox="0 0 357 102" class="iconLeft"><!----><!----><!----><g data-v-423bf9ae="" id="e51f790f-ac9c-442c-962c-c8f3622196ed" fill="#22255B" transform="matrix(4.373177757451571,0,0,4.373177757451571,96.10714626347712,22.509107131875588)"><path d="M7.56 1.54L5.03 1.54L5.03 10.50L2.76 10.50L2.76 1.54L0.24 1.54L0.24-0.42L7.56-0.42L7.56 1.54ZM12.53 2.90L12.53 2.90L12.53 2.90Q12.68 2.90 12.74 2.91L12.74 2.91L12.74 5.04L12.36 5.04L12.36 5.04Q11.21 5.04 10.77 5.68L10.77 5.68L10.77 10.50L8.55 10.50L8.55 5.18L8.43 3.08L10.40 3.08L10.56 3.95L10.56 3.95Q11.30 2.90 12.53 2.90ZM15.67 3.08L17.07 7.81L18.47 3.08L20.87 3.08L18.26 10.11L17.30 13.30L14.67 13.30L15.86 10.11L13.26 3.08L15.67 3.08ZM30.03 5.70L30.09 3.51L28.14 10.50L25.83 10.50L23.88 3.51L23.95 5.70L23.95 10.50L21.69 10.50L21.69-0.42L25.03-0.42L26.99 6.57L28.94-0.42L32.30-0.42L32.30 10.50L30.03 10.50L30.03 5.70ZM36.96 10.68L36.96 10.68L36.96 10.68Q35.24 10.68 34.36 9.70L34.36 9.70L34.36 9.70Q33.49 8.72 33.49 7.04L33.49 7.04L33.49 6.54L33.49 6.54Q33.49 4.86 34.36 3.88L34.36 3.88L34.36 3.88Q35.24 2.90 36.96 2.90L36.96 2.90L36.96 2.90Q38.70 2.90 39.56 3.88L39.56 3.88L39.56 3.88Q40.43 4.86 40.43 6.54L40.43 6.54L40.43 7.04L40.43 7.04Q40.43 8.72 39.56 9.70L39.56 9.70L39.56 9.70Q38.70 10.68 36.96 10.68ZM35.70 7.04L35.70 7.04Q35.70 8.78 36.96 8.78L36.96 8.78L36.96 8.78Q38.22 8.78 38.22 7.04L38.22 7.04L38.22 6.54L38.22 6.54Q38.22 4.80 36.96 4.80L36.96 4.80L36.96 4.80Q35.70 4.80 35.70 6.54L35.70 6.54L35.70 7.04ZM46.24 10.50L43.15 10.50L40.99 3.08L43.27 3.08L44.70 8.72L46.12 3.08L48.41 3.08L46.24 10.50ZM51.51 10.50L49.29 10.50L49.29 3.08L51.51 3.08L51.51 10.50ZM49.24-0.31L51.56-0.31L51.56 2.03L49.24 2.03L49.24-0.31ZM59.63 6.59L59.63 7.59L54.89 7.59L54.89 7.59Q54.95 8.34 55.30 8.67L55.30 8.67L55.30 8.67Q55.65 9.00 56.29 9.00L56.29 9.00L56.29 9.00Q56.85 9.00 57.20 8.74L57.20 8.74L57.20 8.74Q57.54 8.47 57.54 8.12L57.54 8.12L59.63 8.12L59.63 8.18L59.63 8.18Q59.63 9.27 58.74 9.97L58.74 9.97L58.74 9.97Q57.85 10.68 56.28 10.68L56.28 10.68L56.28 10.68Q54.50 10.68 53.59 9.67L53.59 9.67L53.59 9.67Q52.68 8.67 52.68 6.99L52.68 6.99L52.68 6.59L52.68 6.59Q52.68 4.93 53.59 3.91L53.59 3.91L53.59 3.91Q54.50 2.90 56.20 2.90L56.20 2.90L56.20 2.90Q57.89 2.90 58.76 3.91L58.76 3.91L58.76 3.91Q59.63 4.91 59.63 6.59L59.63 6.59ZM57.40 5.99L57.40 5.99Q57.30 4.58 56.15 4.58L56.15 4.58L56.15 4.58Q55.01 4.58 54.91 5.99L54.91 5.99L57.40 5.99Z"></path></g><defs data-v-423bf9ae=""><linearGradient data-v-423bf9ae="" gradientTransform="rotate(25)" id="1fe0582b-9d6c-4fb2-a425-871e4f511a70" x1="0%" y1="0%" x2="100%" y2="0%"><stop data-v-423bf9ae="" offset="0%" style="stop-color: rgb(81, 6, 255); stop-opacity: 1;"></stop><stop data-v-423bf9ae="" offset="100%" style="stop-color: rgb(97, 203, 242); stop-opacity: 1;"></stop></linearGradient></defs><g data-v-423bf9ae="" id="bb83986f-2624-4881-8864-40321870447c" transform="matrix(1.0611562940809462,0,0,1.0611562940809462,-14.412833086477221,-1.8098499644206356)" stroke="none" fill="url(#1fe0582b-9d6c-4fb2-a425-871e4f511a70)"><path d="M50 97.752a6.139 6.139 0 0 1-4.356-1.797C32.058 83.614 21.667 67.877 15.627 50.476a36.312 36.312 0 0 1-1.982-11.873C13.646 18.557 29.954 2.248 50 2.248c20.047 0 36.355 16.309 36.355 36.354a36.33 36.33 0 0 1-1.982 11.871c-6.042 17.405-16.434 33.143-30.051 45.513A6.102 6.102 0 0 1 50 97.752zm0-93.504c-18.943 0-34.354 15.411-34.354 34.354 0 3.846.63 7.62 1.872 11.219 5.93 17.085 16.132 32.537 29.503 44.685.821.814 1.868 1.246 2.979 1.246a4.153 4.153 0 0 0 2.945-1.215 108.73 108.73 0 0 0 29.537-44.718 34.305 34.305 0 0 0 1.873-11.217C84.355 19.659 68.943 4.248 50 4.248z"></path><path d="M50 68.109c-16.343 0-29.64-13.295-29.64-29.638S33.657 8.833 50 8.833s29.639 13.296 29.639 29.639c0 16.342-13.296 29.637-29.639 29.637zm0-57.276c-15.241 0-27.64 12.399-27.64 27.639S34.759 66.109 50 66.109c15.24 0 27.639-12.397 27.639-27.638C77.639 23.23 65.24 10.833 50 10.833z"></path><g><path d="M66.873 43.318H56.092a1 1 0 0 1-1-1v-7.693a1 1 0 0 1 1-1h10.781a1 1 0 0 1 1 1v7.693a1 1 0 0 1-1 1zm-9.781-2h8.781v-5.693h-8.781v5.693zM43.908 43.318H33.126a1 1 0 0 1-1-1v-7.693a1 1 0 0 1 1-1h10.781a1 1 0 0 1 1 1v7.693a.998.998 0 0 1-.999 1zm-9.782-2h8.781v-5.693h-8.781v5.693z"></path><path d="M70 46.971H52.066a1 1 0 0 1-1-1v-3.984c0-1.249-.72-1.249-1.066-1.249-.373 0-1.066 0-1.066 1.249v3.984a1 1 0 0 1-1 1H30a1 1 0 0 1-1-1V31.805a1 1 0 0 1 1-1h40a1 1 0 0 1 1 1v14.166a1 1 0 0 1-1 1zm-16.934-2H69V32.805H31v12.166h15.934v-2.984c0-2.004 1.175-3.249 3.066-3.249 1.862 0 3.066 1.275 3.066 3.249v2.984z"></path></g></g><!----></svg>